<?xml version="1.0" standalone="no"?><!DOCTYPE svg PUBLIC "-//W3C//DTD SVG 1.1//EN" "http://www.w3.org/Graphics/SVG/1.1/DTD/svg11.dtd"><svg t="1724546109876" class="icon" viewBox="0 0 1024 1024" version="1.1" xmlns="http://www.w3.org/2000/svg" p-id="3766" xmlns:xlink="http://www.w3.org/1999/xlink" width="200" height="200"><path d="M767.8 92.7c9.6-23.6 36.5-34.9 60-25.3 21.9 8.9 33.2 32.7 27.1 54.9l-1.7 5.1L733 423.1l30.3 8.1c48.4 13 88.6 52.2 96.2 105.9 6.6 46 12.7 116.1 4.3 188.2-8.4 71.5-31.8 151-89.7 209.4-21.3 21.5-51.9 24.9-72.5 25.2-23.5 0.4-50.7-3.2-78.5-8.7-56-11.1-123.2-31.8-186.8-53.7l-19.1-6.7-37.5-13.5-35.9-13.4-33.8-13-45.1-17.9-37.8-15.5-37.7-15.9c-15.3-6.6-25.7-20.4-27.8-36.5-2.1-16.1 4.5-32.1 17.2-42.1 63.4-49.8 123-107 173.3-159.8l24.3-26c3.9-4.3 7.8-8.5 11.5-12.6l21.7-24.3c3.5-3.9 6.8-7.8 10.2-11.6l27.4-32 15.5-18.7c32.9-40.1 85.6-60.3 137.4-50.1l9.1 2.1 34 9.1L767.8 92.7zM455.6 587.3c-44.7 49.2-99.7 105.6-160.2 158.7 26.5 10.7 53.1 21.2 79.8 31.3 27.2-19 49.4-41.8 65.7-61.6 7.9-9.6 15.6-19.6 22.4-30.2l6.5-10.7c12.4-22.2 40.4-30.2 62.6-17.8 22.2 12.3 30.3 40.4 17.9 62.6-10.8 19.4-24.3 37.5-38.3 54.5-10 12.2-22.2 25.7-36.5 39.4 21.3 7.3 42.5 14.2 63.2 20.6 17.2-11.8 37.3-36.2 55.5-63.8 7.3-11.1 14.3-22.4 20.8-34l9.4-17.7c11.3-22.8 38.9-32.2 61.7-20.9 22.8 11.3 32.2 38.9 20.9 61.7-10.5 21.3-22.8 41.9-35.9 61.7-8 12.1-17.8 26.1-29.2 40l19.4 3.8c16.7 3.1 34.3 5.2 50.1 1.9 35.3-37.5 53.6-92 60.7-152.2 1.6-14 2.6-27.9 3.1-41.7l-319.6-85.6zM585.5 479c-18.1-4.9-38.5 1.6-51.4 17.4l-11.2 13.5 248.7 66.6-2.2-18.1c-0.4-2.9-0.8-5.7-1.1-8.4-1.7-11.7-9.9-22.6-23.5-28.1l-5.3-1.8-154-41.1zM228.3 327.8l2.9 6.4c12.6 26 32.4 47.8 57 62.8l4.6 2.7c2.1 1.2 2.1 4.3 0 5.5l-4.6 2.7c-24.6 15-44.4 36.9-57 62.8l-2.9 6.4c-1.2 2.6-4.8 2.6-6 0l-2.9-6.4c-12.6-26-32.4-47.8-57-62.8l-4.6-2.7c-2.1-1.2-2.1-4.3 0-5.5l4.6-2.7c24.6-15 44.4-36.9 57-62.8l2.9-6.4c1.1-2.6 4.8-2.6 6 0zM358.7 104c1.8-4.1 7.7-4.1 9.5 0l4.7 10.2c20 41.4 51.5 76.1 90.7 100l7.3 4.3c3.4 1.9 3.4 6.8 0 8.7l-7.3 4.3c-39.2 23.9-70.7 58.7-90.7 100l-4.7 10.2c-1.8 4.1-7.7 4.1-9.5 0l-4.7-10.2c-20-41.4-51.5-76.1-90.7-100l-7.3-4.3c-3.4-1.9-3.4-6.8 0-8.7l7.3-4.3c39.2-23.9 70.7-58.7 90.7-100l4.7-10.2z" p-id="3767"></path></svg>