<?xml version="1.0" standalone="no"?><!DOCTYPE svg PUBLIC "-//W3C//DTD SVG 1.1//EN" "http://www.w3.org/Graphics/SVG/1.1/DTD/svg11.dtd"><svg t="1724797698903" class="icon" viewBox="0 0 1024 1024" version="1.1" xmlns="http://www.w3.org/2000/svg" p-id="10549" xmlns:xlink="http://www.w3.org/1999/xlink" width="200" height="200"><path d="M344.436364 65.163636l111.709091 125.672728c9.309091 9.309091 9.309091 23.272727 0 32.581818-9.309091 9.309091-13.963636 9.309091-18.618182 9.309091H214.109091c-13.963636 0-23.272727-9.309091-23.272727-23.272728 0-4.654545 0-9.309091 4.654545-13.963636l111.709091-125.672727c9.309091-13.963636 23.272727-13.963636 37.236364-4.654546-4.654545 0 0 0 0 0zM958.836364 712.145455l-130.327273 111.70909c-9.309091 9.309091-23.272727 9.309091-32.581818 0-4.654545-4.654545-4.654545-9.309091-4.654546-13.963636v-223.418182c0-13.963636 9.309091-23.272727 23.272728-23.272727 4.654545 0 9.309091 0 13.963636 4.654545l125.672727 111.709091c13.963636 9.309091 13.963636 23.272727 4.654546 32.581819z" p-id="10550"></path><path d="M325.818182 139.636364c27.927273 0 46.545455 18.618182 46.545454 46.545454v744.727273c0 27.927273-18.618182 46.545455-46.545454 46.545454s-46.545455-18.618182-46.545455-46.545454V186.181818c0-27.927273 18.618182-46.545455 46.545455-46.545454zM530.618182 530.618182l65.163636-65.163637c9.309091-9.309091 9.309091-23.272727 0-32.581818s-23.272727-9.309091-32.581818 0l-69.818182 60.509091c-9.309091 9.309091-9.309091 23.272727 0 32.581818 9.309091 9.309091 27.927273 9.309091 37.236364 4.654546z m162.909091-167.563637l65.163636-65.163636c9.309091-9.309091 9.309091-23.272727 0-32.581818s-23.272727-9.309091-32.581818 0l-65.163636 65.163636c-9.309091 9.309091-9.309091 23.272727 0 32.581818 9.309091 9.309091 23.272727 9.309091 32.581818 0z m162.909091-162.90909l41.890909-41.89091c9.309091-9.309091 9.309091-23.272727 0-32.581818-9.309091-9.309091-23.272727-9.309091-32.581818 0l-41.89091 41.890909c-9.309091 9.309091-9.309091 23.272727 0 32.581819 9.309091 9.309091 23.272727 9.309091 32.581819 0z" p-id="10551"></path><path d="M93.090909 651.636364h698.181818c27.927273 0 46.545455 18.618182 46.545455 46.545454s-18.618182 46.545455-46.545455 46.545455H93.090909c-27.927273 0-46.545455-18.618182-46.545454-46.545455s18.618182-46.545455 46.545454-46.545454z" p-id="10552"></path></svg>