<?xml version="1.0" standalone="no"?><!DOCTYPE svg PUBLIC "-//W3C//DTD SVG 1.1//EN" "http://www.w3.org/Graphics/SVG/1.1/DTD/svg11.dtd"><svg t="1724799259491" class="icon" viewBox="0 0 1024 1024" version="1.1" xmlns="http://www.w3.org/2000/svg" p-id="12169" xmlns:xlink="http://www.w3.org/1999/xlink" width="200" height="200"><path d="M832 85.344l-640 0c-58.912 0-106.656 47.744-106.656 106.656l0 640c0 58.912 47.776 106.656 106.656 106.656l640 0c58.912 0 106.656-47.776 106.656-106.656l0-640c0-58.912-47.744-106.656-106.656-106.656zM866.368 777.792c0 48.928-39.648 88.576-88.544 88.576l-531.616 0c-48.928 0-88.576-39.648-88.576-88.576l0-531.616c0-48.928 39.648-88.608 88.576-88.608l531.616 0c48.928 0 88.544 39.648 88.544 88.608l0 531.616z" fill="#444444" p-id="12170"></path></svg>