<?xml version="1.0" standalone="no"?><!DOCTYPE svg PUBLIC "-//W3C//DTD SVG 1.1//EN" "http://www.w3.org/Graphics/SVG/1.1/DTD/svg11.dtd"><svg t="1725873712877" class="icon" viewBox="0 0 1024 1024" version="1.1" xmlns="http://www.w3.org/2000/svg" p-id="12668" xmlns:xlink="http://www.w3.org/1999/xlink" width="200" height="200"><path d="M320 42.666667h-85.333333a21.333333 21.333333 0 0 0 0 42.666666h85.333333a21.333333 21.333333 0 1 0 0-42.666666zM576 42.666667h-85.333333a21.333333 21.333333 0 0 0 0 42.666666h85.333333a21.333333 21.333333 0 1 0 0-42.666666zM320 704h-85.333333a21.333333 21.333333 0 0 0 0 42.666667h85.333333a21.333333 21.333333 0 1 0 0-42.666667zM576 704h-85.333333a21.333333 21.333333 0 0 0 0 42.666667h85.333333a21.333333 21.333333 0 0 0 0-42.666667zM42.666667 576a21.333333 21.333333 0 0 0 42.666666 0v-85.333333a21.333333 21.333333 0 1 0-42.666666 0v85.333333zM64 341.333333a21.333333 21.333333 0 0 0 21.333333-21.333333v-85.333333a21.333333 21.333333 0 1 0-42.666666 0v85.333333a21.333333 21.333333 0 0 0 21.333333 21.333333zM746.666667 469.333333a21.333333 21.333333 0 0 0-21.333334 21.333334v85.333333a21.333333 21.333333 0 0 0 42.666667 0v-85.333333a21.333333 21.333333 0 0 0-21.333333-21.333334zM768 234.666667a21.333333 21.333333 0 1 0-42.666667 0v85.333333a21.333333 21.333333 0 0 0 42.666667 0v-85.333333zM704 128h85.333333a21.333333 21.333333 0 0 0 21.333334-21.333333v-85.333334a21.333333 21.333333 0 0 0-21.333334-21.333333h-85.333333a21.333333 21.333333 0 0 0-21.333333 21.333333v85.333334a21.333333 21.333333 0 0 0 21.333333 21.333333zM106.666667 0h-85.333334a21.333333 21.333333 0 0 0-21.333333 21.333333v85.333334a21.333333 21.333333 0 0 0 21.333333 21.333333h85.333334a21.333333 21.333333 0 0 0 21.333333-21.333333v-85.333334a21.333333 21.333333 0 0 0-21.333333-21.333333zM106.666667 661.333333h-85.333334a21.333333 21.333333 0 0 0-21.333333 21.333334v85.333333a21.333333 21.333333 0 0 0 21.333333 21.333333h85.333334A21.333333 21.333333 0 0 0 128 768v-85.333333a21.333333 21.333333 0 0 0-21.333333-21.333334zM1013.034667 770.688l-384-213.333333a21.248 21.248 0 0 0-30.165334 26.581333l170.666667 426.666667a21.290667 21.290667 0 0 0 19.541333 13.397333h0.256a21.333333 21.333333 0 0 0 19.626667-12.928l60.629333-141.482667 141.482667-60.629333a21.376 21.376 0 0 0 1.962667-38.272z" p-id="12669"></path></svg>